<svg xmlns="http://www.w3.org/2000/svg" viewBox="0 0 530.14 525.91"><defs><style>.cls-1{fill:#9e9e9e;}</style></defs><title>Asset 2</title><g id="Layer_2" data-name="Layer 2"><g id="Layer_1-2" data-name="Layer 1"><path class="cls-1" d="M265.21,302.68c13-.58,24-10.55,24-24V24c0-12.55-11-24.58-24-24s-24,10.55-24,24V278.68C241.21,291.24,252.25,303.26,265.21,302.68Z"/><path class="cls-1" d="M523.23,243.67c-9.58-8.79-24.45-9.49-33.94,0l-23.94,23.94-57.52,57.52-70,70-60.21,60.21c-4.19,4.19-8.44,8.35-12.67,12.52l-6.72-6.72-57.52-57.52-70-70L70.53,273.4c-9.76-9.76-19.31-19.8-29.31-29.31l-.42-.42c-8.89-8.89-25.17-9.55-33.94,0s-9.49,24.45,0,33.94L30.8,301.55l57.52,57.52,70,70,60.21,60.21c9,9,17.76,18.14,26.88,26.94A20.28,20.28,0,0,0,247.9,519a26.18,26.18,0,0,0,9.26,5.5l.1,0,.89.29c8.32,2.5,18,.78,24-5.82.59-.64,1.14-1.31,1.66-2l21.94-21.94,57.52-57.52,70-70,60.21-60.21c9.76-9.76,19.8-19.31,29.31-29.31l.42-.42C532.11,268.72,532.78,252.43,523.23,243.67Z"/></g></g></svg>